<svg id="图层_1" data-name="图层 1" xmlns="http://www.w3.org/2000/svg" xmlns:xlink="http://www.w3.org/1999/xlink" viewBox="0 0 473.61 404.71"><defs><style>.cls-1{fill:url(#未命名的渐变_23);}.cls-2{fill:url(#未命名的渐变_20);}.cls-3{fill:url(#未命名的渐变_63);}</style><linearGradient id="未命名的渐变_23" x1="428.93" y1="167.9" x2="428.93" y2="404.71" gradientUnits="userSpaceOnUse"><stop offset="0" stop-color="#dad8a7"/><stop offset="0.12" stop-color="#dccfa5"/><stop offset="0.33" stop-color="#e2b59e"/><stop offset="0.59" stop-color="#ec8c93"/><stop offset="0.89" stop-color="#fa5385"/><stop offset="1" stop-color="#ff3d7f"/></linearGradient><linearGradient id="未命名的渐变_20" x1="424.46" y1="401.61" x2="424.46" y2="638.42" gradientUnits="userSpaceOnUse"><stop offset="0" stop-color="#dad8a7"/><stop offset="0.26" stop-color="#e0cfa5"/><stop offset="0.68" stop-color="#f0b5a1"/><stop offset="1" stop-color="#ff9e9d"/></linearGradient><linearGradient id="未命名的渐变_63" x1="424.46" y1="233.71" x2="424.46" y2="427.62" gradientUnits="userSpaceOnUse"><stop offset="0" stop-color="#3fb8af"/><stop offset="0.1" stop-color="#48baaf"/><stop offset="0.25" stop-color="#62c0af"/><stop offset="0.4" stop-color="#7fc7af"/><stop offset="0.48" stop-color="#8ac9ae"/><stop offset="0.61" stop-color="#a6ceac"/><stop offset="0.78" stop-color="#d3d7a8"/><stop offset="0.8" stop-color="#dad8a7"/></linearGradient></defs><title>logo</title><rect class="cls-1" x="384.24" y="167.9" width="89.37" height="236.8"/><path class="cls-2" d="M424.46,549.05A147.44,147.44,0,0,1,277,401.61H187.65c0,130.79,106,236.81,236.81,236.81s236.8-106,236.8-236.81H571.9A147.44,147.44,0,0,1,424.46,549.05Z" transform="translate(-187.65 -233.71)"/><path class="cls-3" d="M521.15,233.71c-37.51,0-71.54,17.31-96.69,45.45-25.15-28.14-59.18-45.45-96.69-45.45-77.38,0-140.12,73.57-140.12,164.32,0,1.2.06,2.39.08,3.58H277c0-36.09,27.18-65.35,60.71-65.35s60.61,29.15,60.71,65.15v.2a26,26,0,1,0,52,0c0-36.09,27.18-65.35,60.71-65.35s60.72,29.26,60.72,65.35h89.29c0-1.19.07-2.38.07-3.58C661.26,307.28,598.53,233.71,521.15,233.71Z" transform="translate(-187.65 -233.71)"/></svg>